<?xml version="1.0" encoding="UTF-8" standalone="no"?>
<!DOCTYPE svg PUBLIC "-//W3C//DTD SVG 20010904//EN"
              "http://www.w3.org/TR/2001/REC-SVG-20010904/DTD/svg10.dtd">

<svg xmlns="http://www.w3.org/2000/svg"
     width="0.266667in" height="0.266667in"
     viewBox="0 0 24 24">
  <path id="Imported Path"
        fill="none" stroke="black" stroke-width="1"
        d="M 7.00,11.00
           C 7.00,11.00 7.00,7.00 7.00,7.00
             7.00,4.24 9.24,2.00 12.00,2.00
             14.76,2.00 17.00,4.24 17.00,7.00
             17.00,7.00 17.00,11.00 17.00,11.00M 19.00,11.00
           C 20.10,11.00 21.00,11.90 21.00,13.00
             21.00,13.00 21.00,20.00 21.00,20.00
             21.00,21.10 20.10,22.00 19.00,22.00
             19.00,22.00 5.00,22.00 5.00,22.00
             3.90,22.00 3.00,21.10 3.00,20.00
             3.00,20.00 3.00,13.00 3.00,13.00
             3.00,11.90 3.90,11.00 5.00,11.00
             5.00,11.00 19.00,11.00 19.00,11.00 Z" />
</svg>
