<?xml version="1.0" encoding="UTF-8" standalone="no"?>
<!DOCTYPE svg PUBLIC "-//W3C//DTD SVG 20010904//EN"
              "http://www.w3.org/TR/2001/REC-SVG-20010904/DTD/svg10.dtd">

<svg xmlns="http://www.w3.org/2000/svg"
     width="0.266667in" height="0.266667in"
     viewBox="0 0 24 24">
  <path id="Imported Path"
        fill="none" stroke="black" stroke-width="1"
        d="M 12.00,6.00
           C 12.00,6.00 12.00,10.00 12.00,10.00M 12.00,2.00
           C 15.87,2.00 19.00,5.13 19.00,9.00
             19.00,9.00 19.00,15.00 19.00,15.00
             19.00,18.87 15.87,22.00 12.00,22.00
             12.00,22.00 12.00,22.00 12.00,22.00
             8.13,22.00 5.00,18.87 5.00,15.00
             5.00,15.00 5.00,9.00 5.00,9.00
             5.00,5.13 8.13,2.00 12.00,2.00
             12.00,2.00 12.00,2.00 12.00,2.00 Z" />
</svg>
