<?xml version="1.0" encoding="UTF-8" standalone="no"?>
<!DOCTYPE svg PUBLIC "-//W3C//DTD SVG 20010904//EN"
              "http://www.w3.org/TR/2001/REC-SVG-20010904/DTD/svg10.dtd">

<svg xmlns="http://www.w3.org/2000/svg"
     width="0.266667in" height="0.266667in"
     viewBox="0 0 24 24">
  <path id="Imported Path"
        fill="none" stroke="black" stroke-width="1"
        d="M 22.00,22.00
           C 22.00,22.00 2.00,2.00 2.00,2.00M 19.00,13.34
           C 19.00,13.34 19.00,9.00 19.00,9.00
             19.00,9.00 19.00,9.00 19.00,9.00
             19.00,5.13 15.87,2.00 12.00,2.00
             10.75,2.00 9.58,2.33 8.56,2.90M 18.22,18.22
           C 17.05,20.47 14.71,22.00 12.00,22.00
             8.13,22.00 5.00,18.87 5.00,15.00
             5.00,15.00 5.00,15.00 5.00,15.00
             5.00,15.00 5.00,9.00 5.00,9.00
             5.00,9.00 5.00,9.00 5.00,9.00
             5.00,7.84 5.28,6.74 5.78,5.78M 12.00,6.00
           C 12.00,6.00 12.00,6.34 12.00,6.34" />
</svg>
