<?xml version="1.0" encoding="UTF-8" standalone="no"?>
<!DOCTYPE svg PUBLIC "-//W3C//DTD SVG 20010904//EN"
              "http://www.w3.org/TR/2001/REC-SVG-20010904/DTD/svg10.dtd">

<svg xmlns="http://www.w3.org/2000/svg"
     width="0.266667in" height="0.266667in"
     viewBox="0 0 24 24">
  <path id="Imported Path"
        fill="none" stroke="black" stroke-width="1"
        d="M 18.00,11.00
           C 18.00,9.90 18.90,9.00 20.00,9.00
             21.10,9.00 22.00,9.90 22.00,11.00
             22.00,11.00 22.00,14.00 22.00,14.00
             22.00,18.42 18.42,22.00 14.00,22.00
             14.00,22.00 12.00,22.00 12.00,22.00
             9.20,22.00 7.50,21.14 6.01,19.66
             6.01,19.66 2.41,16.06 2.41,16.06
             2.09,15.71 1.89,15.24 1.89,14.72
             1.89,13.62 2.79,12.72 3.89,12.72
             4.41,12.72 4.88,12.92 5.24,13.24
             5.24,13.24 7.00,15.00 7.00,15.00M 10.00,9.50
           C 10.00,9.50 10.00,4.00 10.00,4.00
             10.00,2.90 9.10,2.00 8.00,2.00
             6.90,2.00 6.00,2.90 6.00,4.00
             6.00,4.00 6.00,14.00 6.00,14.00M 14.00,10.00
           C 14.00,10.00 14.00,9.00 14.00,9.00
             14.00,7.90 13.10,7.00 12.00,7.00
             10.90,7.00 10.00,7.90 10.00,9.00
             10.00,9.00 10.00,10.00 10.00,10.00M 18.00,11.00
           C 18.00,11.00 18.00,10.00 18.00,10.00
             18.00,8.90 17.10,8.00 16.00,8.00
             14.90,8.00 14.00,8.90 14.00,10.00M 22.00,14.00
           C 22.00,18.42 18.42,22.00 14.00,22.00" />
</svg>
