<?xml version="1.0" encoding="UTF-8" standalone="no"?>
<!DOCTYPE svg PUBLIC "-//W3C//DTD SVG 20010904//EN"
              "http://www.w3.org/TR/2001/REC-SVG-20010904/DTD/svg10.dtd">

<svg xmlns="http://www.w3.org/2000/svg"
     width="0.266667in" height="0.266667in"
     viewBox="0 0 24 24">
  <path id="Imported Path"
        fill="none" stroke="black" stroke-width="1"
        d="M 2.00,2.00
           C 2.00,2.00 22.00,22.00 22.00,22.00M 6.00,6.00
           C 6.00,6.00 6.00,14.00 6.00,14.00M 7.00,15.00
           C 7.00,15.00 5.20,13.20 5.20,13.20
             4.85,12.89 4.38,12.70 3.87,12.70
             2.77,12.70 1.87,13.59 1.87,14.70
             1.87,15.22 2.08,15.70 2.41,16.06
             2.41,16.06 6.00,19.70 6.00,19.70
             7.40,21.13 9.36,22.01 11.52,22.01
             11.68,22.01 11.84,22.01 12.00,22.00
             12.00,22.00 14.00,22.00 14.00,22.00
             14.00,22.00 14.00,22.00 14.00,22.00
             16.21,22.00 18.21,21.10 19.66,19.66M 21.70,16.20
           C 21.90,15.52 22.00,14.78 22.00,14.03
             22.00,14.02 22.00,14.01 22.00,14.00
             22.00,14.00 22.00,11.00 22.00,11.00
             22.00,9.90 21.10,9.00 20.00,9.00
             18.90,9.00 18.00,9.90 18.00,11.00
             18.00,11.00 18.00,10.00 18.00,10.00
             18.00,8.90 17.10,8.00 16.00,8.00
             15.33,8.00 14.73,8.33 14.37,8.84M 13.90,8.40
           C 13.71,7.79 13.24,7.31 12.64,7.10M 10.00,4.50
           C 10.00,4.50 10.00,4.00 10.00,4.00
             10.00,2.90 9.10,2.00 8.00,2.00
             7.86,2.00 7.72,2.02 7.59,2.04" />
</svg>
